<?xml version="1.0" encoding="UTF-8" standalone="no"?>
<svg width="370px" height="131px" viewBox="0 0 370 131" version="1.1" xmlns="http://www.w3.org/2000/svg" xmlns:xlink="http://www.w3.org/1999/xlink">
    <title>Mercy Corps logo</title>
    <desc></desc>
    <defs></defs>
    <g id="Page-1" stroke="none" stroke-width="1" fill="none" fill-rule="evenodd">
        <g id="MCbrand_Logo_Horizontal" fill="#CF102D">
            <g id="Group">
                <path d="M38.9,48.5 C40.7,55.3 40.9,61.5 40.9,61.5 C46.5,53.5 52.4,46.3 59.9,40.2 C68.1,33.6 73.8,29.6 84.3,24.9 C93.6,20.7 98.1,19.5 102.7,18 C108.1,16.3 111.8,15.3 116.9,14.1 C121.8,13 126.5,12.1 126.5,13.3 C126.5,14.1 121,16.1 120.2,16.5 C116.4,18.2 112.8,19.5 104.8,23.2 C95.2,27.7 88.2,32.8 80.1,39.5 C72.8,45.5 65.8,53.7 59.6,62 C58,64.1 53.7,69.1 50.2,74.8 C47,79.9 44.1,85.3 43.1,87 C41.3,90.3 37.8,97.8 37.8,97.8 C37.8,97.8 41,98.9 46.8,98.6 C53.4,98.2 58.5,97.5 66.9,93.2 C76.3,88.4 82.5,82.6 89.3,75.5 C95.8,68.6 100.5,63 106.3,54.3 C110,48.6 113,44.4 117.9,34.6 C121,28.4 122.3,21.6 123.2,21.4 C124.2,21.1 124.5,27.6 123.6,33.3 C121.5,47.3 120.1,51.3 115.9,60.3 C112.9,66.9 108.4,73.8 102,80.3 C95.4,87.1 89.9,91.8 81.2,97.5 C74.9,101.6 70.5,103.7 63.6,105.6 C55.9,107.8 46.9,107.4 43.5,107.1 C38.7,106.8 34.7,105.6 34.7,105.6 C33.3,108 30.9,116 30.1,119.3 C29.3,122.6 27.8,126.2 27,127.6 C25.8,129.8 24.1,131.4 22.6,130.8 C19.7,129.8 18.2,127.1 17.6,123.5 C16.7,117.9 17.4,112 18.1,108.7 C19,104 20.8,98.1 20.8,98.1 C19.2,96.5 14.3,91.7 8.7,81.4 C4.2,73.2 0.7,62.2 0.8,51.3 C0.9,39.7 3.4,28.5 8.6,18 C11.1,12.9 13.2,9.9 15,7 C16.9,4 19.2,0.8 19.4,0.8 C19.7,0.8 25,11.4 30.3,23.8 C35.5,36.6 37.1,41.4 38.9,48.5 Z M52.6,17 C50,18.9 49.7,19.6 48,21.4 C46.2,23.3 45.9,24.8 46.2,27.3 C46.3,27.9 46.7,29.3 47,29.9 C48.3,32 50.1,33 52.3,33 C53.6,33 56,31.8 58.4,28.6 C60.8,25.4 61.3,24.2 61.3,22.7 C61.3,21.5 61,20.1 59.5,18.5 C57.9,16.6 54.5,15.7 52.6,17 Z M19.1,5 C19.1,5 17.8,8 16.3,11.6 C14,16.8 11,24 9.2,30.3 C6.8,39 5.1,51.8 7.5,61.3 C8.5,65.3 9.6,68.2 11,71.6 C13.5,77.5 17.3,83.4 24.2,89.9 C24.2,89.9 26.5,86.8 27.4,81.3 C27.9,78.1 27.9,77.3 28.1,74.7 C28.4,70.7 28.4,66.4 28.5,61.5 C28.7,55.1 28.1,48 26.5,38.4 C25.6,33.3 24,24.1 22.8,18.9 C21.5,13.7 19.1,5 19.1,5 Z" id="Shape"></path>
                <g transform="translate(140.000000, 17.000000)" id="Shape" fill-rule="nonzero">
                    <path d="M93,102.5 C88.1,107.2 81.6,109.9 74.9,109.9 C69.1,109.9 63.3,107.8 58.7,104.2 C52.7,99.4 49.4,92.6 49.4,84.9 C49.4,78.1 52,71.9 56.9,67.2 C61.7,62.5 68.3,59.8 74.9,59.8 C81.5,59.8 88.2,62.5 93,67.2 C97.9,71.9 100.4,78.2 100.4,84.9 C100.4,91.6 97.8,97.8 93,102.5 Z M87.4,84.8 C87.4,77 82.2,70.8 74.9,70.8 C67.5,70.8 62.4,77 62.4,84.8 C62.4,92.7 67.3,98.8 74.9,98.8 C82.3,98.8 87.4,92.6 87.4,84.8 Z"></path>
                    <path d="M105.3,60.8 L118.9,60.8 L119.7,60.8 C126.3,60.8 131.4,60.9 135.5,64 C139,66.7 140.8,70.7 140.8,75.7 C140.8,83.1 137.1,87.9 130.1,89.3 L143.1,108.5 L128.4,108.5 L117.4,89.8 L117.4,108.5 L105.2,108.5 L105.2,60.8 L105.3,60.8 Z M119.9,83.4 C125.4,83.4 128,81.7 128,77.5 C128,72.5 125.5,70.9 120.1,70.9 L117.5,70.9 L117.5,83.5 L119.9,83.5 L119.9,83.4 Z"></path>
                    <path d="M147.8,108.6 L147.8,60.8 L161.4,60.8 L162.3,60.8 C168.3,60.8 173.1,60.9 176.8,63.3 C181,66 183.5,70.9 183.5,77.1 C183.5,83.5 181.2,88.2 176.9,90.7 C173.6,92.6 170,92.8 165.5,92.8 L162.4,92.8 L160,92.8 L160,108.6 L147.8,108.6 L147.8,108.6 Z M162.5,82.3 C168.1,82.3 170.9,81.2 170.9,76.6 C170.9,72 167.9,71 162.6,71 L160,71 L160,82.2 L162.5,82.2 L162.5,82.3 Z"></path>
                    <path d="M202.3,99.7 C205.9,99.7 208.2,97.6 208.2,94.8 C208.2,91 205.6,89.9 200.2,88.4 C191.6,86.1 187.4,82.7 187.4,75.2 C187.4,66.3 193.9,59.7 203.9,59.7 C209.2,59.7 213.9,61.1 218.1,64 L214,73.4 C211,70.9 207.8,69.6 204.8,69.6 C201.6,69.6 199.5,71.3 199.5,73.6 C199.5,77 202.8,77.7 207.1,78.9 C215.6,81.2 220.3,84.3 220.3,93.1 C220.3,103.1 213.2,109.9 202,109.9 C195.3,109.9 190.2,107.8 185,102.9 L190.9,93.2 C194.7,97.4 198.5,99.7 202.3,99.7 Z"></path>
                    <path d="M25.8,98.8 C18.3,98.8 13.5,93.6 13.3,84.8 C13.5,75.9 18.4,70.8 25.8,70.8 C30,70.8 33.4,72.6 36,76.3 L47.3,70.9 C42.4,63.6 35.1,59.9 25.8,59.9 C11.1,59.9 0.3,70.4 0.3,84.9 L0.3,84.9 L0.3,84.9 C0.3,99.4 11.1,109.9 25.8,109.9 C35.1,109.9 42.4,106.2 47.3,98.9 L36,93.5 C33.4,97 30.1,98.8 25.8,98.8 Z"></path>
                    <g transform="translate(2.000000, 0.000000)">
                        <path d="M39,49.4 L39,18.1 C38.3,22.3 37.3,25.2 36.8,27.1 L30.3,49.5 L21.6,49.5 L15.1,27.1 C14.6,25.2 13.6,22.4 12.9,18.1 L12.9,49.4 L0.7,49.4 L0.7,1.6 L17.2,1.6 L24.4,26.3 C24.9,27.8 25.5,29.9 25.9,32.8 C26.2,30.1 26.8,28 27.4,26.3 L34.7,1.7 L51.2,1.7 L51.2,49.5 L39,49.5 L39,49.4 Z"></path>
                        <polygon points="58.6 1.6 87.9 1.6 87.9 12.1 71.3 12.1 71.3 20.4 87 20.4 87 30.6 71.4 30.6 71.4 38.7 88 38.7 88 49.4 58.7 49.4 58.7 1.6"></polygon>
                        <path d="M94.5,1.6 L108.1,1.6 L108.9,1.6 C115.5,1.6 120.6,1.7 124.7,4.8 C128.2,7.5 130,11.5 130,16.5 C130,23.9 126.3,28.7 119.3,30.1 L132.3,49.3 L117.6,49.3 L106.6,30.6 L106.6,49.3 L94.4,49.3 L94.4,1.6 L94.5,1.6 Z M109.2,24.2 C114.7,24.2 117.3,22.5 117.3,18.3 C117.3,13.3 114.8,11.7 109.4,11.7 L106.8,11.7 L106.8,24.3 L109.2,24.3 L109.2,24.2 Z"></path>
                        <path d="M159.4,39.5 C151.9,39.5 147.1,34.3 146.9,25.5 C147.1,16.6 152,11.5 159.4,11.5 C163.6,11.5 167,13.3 169.6,17 L180.9,11.6 C176,4.3 168.7,0.6 159.4,0.6 C144.7,0.6 133.9,11.1 133.9,25.6 L133.9,25.6 L133.9,25.6 C133.9,40.1 144.7,50.6 159.4,50.6 C168.7,50.6 176,46.9 180.9,39.6 L169.6,34.2 C166.9,37.7 163.6,39.5 159.4,39.5 Z"></path>
                        <polygon points="183.8 50.3 198.5 50.3 227.3 1.5 212.5 1.5 203.9 16 193.6 1.5 179.3 1.5 197.3 27.3"></polygon>
                    </g>
                </g>
            </g>
        </g>
    </g>
</svg>