<?xml version="1.0" encoding="UTF-8" standalone="no"?>
<svg width="447px" height="361px" viewBox="0 0 447 361" version="1.1" xmlns="http://www.w3.org/2000/svg" xmlns:xlink="http://www.w3.org/1999/xlink" xmlns:sketch="http://www.bohemiancoding.com/sketch/ns">
    <!-- Generator: Sketch 3.3.2 (12043) - http://www.bohemiancoding.com/sketch -->
    <title>Coast Recovery Graph Copy 2</title>
    <desc>Created with Sketch.</desc>
    <defs></defs>
    <g id="Page-1" stroke="none" stroke-width="1" fill="none" fill-rule="evenodd" sketch:type="MSPage">
        <g id="Graphs" sketch:type="MSArtboardGroup" transform="translate(-1203.000000, -1515.000000)">
            <g id="Coast-Recovery-Graph-Copy-2" sketch:type="MSLayerGroup" transform="translate(1203.000000, 1514.000000)">
                <g id="Page-1">
                    <g id="Coast">
                        <path d="M336.8,1 L336.8,361.433594" id="Line" stroke="#E6E6E6" stroke-width="2" sketch:type="MSShapeGroup"></path>
                        <g id="THREE-YEARS" transform="translate(348.803294, 0.000000)" font-size="16" font-family="Helvetica" fill="#B7B7B7" sketch:type="MSTextLayer" font-weight="bold">
                            <text id="THREE-">
                                <tspan x="0" y="15">THREE </tspan>
                                <tspan x="0" y="34">YEARS</tspan>
                            </text>
                        </g>
                        <path d="M226.4,1 L226.4,361.433594" id="Line" stroke="#E6E6E6" stroke-width="2" sketch:type="MSShapeGroup"></path>
                        <g id="TWO-YEARS" transform="translate(238.642765, 0.000000)" font-size="16" font-family="Helvetica" fill="#B7B7B7" sketch:type="MSTextLayer" font-weight="bold">
                            <text id="TWO-">
                                <tspan x="0" y="15">TWO </tspan>
                                <tspan x="0" y="34">YEARS</tspan>
                            </text>
                        </g>
                        <path d="M115.54,1 L115.54,361.433594" id="Line" stroke="#E6E6E6" stroke-width="2" sketch:type="MSShapeGroup"></path>
                        <g id="ONE-YEAR" transform="translate(127.155000, 0.000000)" font-size="16" font-family="Helvetica" fill="#B7B7B7" sketch:type="MSTextLayer" font-weight="bold">
                            <text id="ONE">
                                <tspan x="0" y="15">ONE</tspan>
                                <tspan x="0" y="34">YEAR</tspan>
                            </text>
                        </g>
                        <path d="M14.34,1 L14.34,361.433594" id="Line" stroke="#E6E6E6" stroke-width="2" sketch:type="MSShapeGroup"></path>
                        <g id="ONE-MONTH" transform="translate(25.621500, 1.000000)" font-size="16" font-family="Helvetica" fill="#B7B7B7" sketch:type="MSTextLayer" font-weight="bold">
                            <text id="ONE-">
                                <tspan x="0" y="15">ONE </tspan>
                                <tspan x="0" y="34">MONTH</tspan>
                            </text>
                        </g>
                        <path d="M426.228307,228.328351 L424.611275,234.23792 C424.339116,235.476374 424.611275,236.405009 425.292397,237.179967 C426.24785,238.106958 427.885872,237.797139 428.838429,236.867683 L446.546875,222.542052 L428.590157,208.438307 C427.636152,207.509672 426.000301,207.199031 425.04702,208.128488 C424.363726,208.903446 424.092291,209.831259 424.363726,211.070535 L426.316614,216.804239 C426.316614,216.804239 424.121968,228.257676 426.228307,228.328351 Z" id="Imported-Layers-Copy-5" fill="#FF9933" sketch:type="MSShapeGroup"></path>
                        <path d="M426.228307,168.328351 L424.611275,174.23792 C424.339116,175.476374 424.611275,176.405009 425.292397,177.179967 C426.24785,178.106958 427.885872,177.797139 428.838429,176.867683 L446.546875,162.542052 L428.590157,148.438307 C427.636152,147.509672 426.000301,147.199031 425.04702,148.128488 C424.363726,148.903446 424.092291,149.831259 424.363726,151.070535 L426.316614,156.804239 C426.316614,156.804239 424.121968,168.257676 426.228307,168.328351 Z" id="Imported-Layers-Copy-6" fill="#FF9933" sketch:type="MSShapeGroup"></path>
                        <path d="M426.228307,109.328351 L424.611275,115.23792 C424.339116,116.476374 424.611275,117.405009 425.292397,118.179967 C426.24785,119.106958 427.885872,118.797139 428.838429,117.867683 L446.546875,103.542052 L428.590157,89.4383069 C427.636152,88.509672 426.000301,88.1990313 425.04702,89.128488 C424.363726,89.9034461 424.092291,90.8312592 424.363726,92.0705347 L426.316614,97.8042387 C426.316614,97.8042387 424.121968,109.257676 426.228307,109.328351 Z" id="Imported-Layers-Copy-7" fill="#FF9933" sketch:type="MSShapeGroup"></path>
                        <path d="M425.626728,287.328351 L424.009697,293.23792 C423.737538,294.476374 424.009697,295.405009 424.690819,296.179967 C425.646271,297.106958 427.284294,296.797139 428.236851,295.867683 L445.945296,281.542052 L427.988578,267.438307 C427.034573,266.509672 425.398722,266.199031 424.445441,267.128488 C423.762148,267.903446 423.490712,268.831259 423.762148,270.070535 L425.715035,275.804239 C425.715035,275.804239 423.520389,287.257676 425.626728,287.328351 Z" id="Imported-Layers-Copy-8" fill="#FF9933" sketch:type="MSShapeGroup"></path>
                        <path d="M426.228307,343.328351 L424.611275,349.23792 C424.339116,350.476374 424.611275,351.405009 425.292397,352.179967 C426.24785,353.106958 427.885872,352.797139 428.838429,351.867683 L446.546875,337.542052 L428.590157,323.438307 C427.636152,322.509672 426.000301,322.199031 425.04702,323.128488 C424.363726,323.903446 424.092291,324.831259 424.363726,326.070535 L426.316614,331.804239 C426.316614,331.804239 424.121968,343.257676 426.228307,343.328351 Z" id="Imported-Layers-Copy-9" fill="#FF9933" sketch:type="MSShapeGroup"></path>
                        <rect id="healthcare" fill="#FF9933" sketch:type="MSShapeGroup" x="1.27327356" y="328.75" width="433.16089" height="18.5"></rect>
                        <rect id="natural-gas" fill="#FF9933" sketch:type="MSShapeGroup" x="1.27327356" y="272.5" width="433.16089" height="18.5"></rect>
                        <rect id="electric" fill="#FF9933" sketch:type="MSShapeGroup" x="1" y="213.5" width="433.16089" height="18.5"></rect>
                        <rect id="water-dist-center" fill="#FF9933" sketch:type="MSShapeGroup" x="1" y="153.75" width="433.16089" height="18.5"></rect>
                        <rect id="water-&amp;-sewer" fill="#FF9933" sketch:type="MSShapeGroup" x="1" y="94.75" width="433.16089" height="18.5"></rect>
                        <g id="WATER-&amp;-SEWER" transform="translate(0.000000, 70.000000)" fill="#FF9933" font-size="18" font-family="Helvetica" line-spacing="18" sketch:type="MSTextLayer" font-weight="bold">
                            <text>
                                <tspan x="0" y="18">WATER &amp; SEWER</tspan>
                            </text>
                        </g>
                        <g id="WATER-AT-DISTRIBUTIO" transform="translate(0.000000, 130.000000)" font-weight="bold" font-family="Helvetica" line-spacing="18" fill="#FF9933" font-size="18" sketch:type="MSTextLayer">
                            <text id="WATER-AT-DISTRIBUTION-CENTERS">
                                <tspan x="0" y="18">WATER AT DISTRIBUTION CENTERS</tspan>
                            </text>
                        </g>
                        <g id="ELECTRICITY" transform="translate(0.000000, 189.000000)" fill="#FF9933" font-size="18" font-family="Helvetica" line-spacing="18" sketch:type="MSTextLayer" font-weight="bold">
                            <text>
                                <tspan x="0" y="18">ELECTRICITY</tspan>
                            </text>
                        </g>
                        <g id="NATURAL-GAS" transform="translate(0.000000, 249.000000)" fill="#FF9933" font-size="18" font-family="Helvetica" line-spacing="18" sketch:type="MSTextLayer" font-weight="bold">
                            <text>
                                <tspan x="0" y="18">NATURAL GAS</tspan>
                            </text>
                        </g>
                        <g id="HEALTHCARE-FACILITIE" transform="translate(0.000000, 304.000000)" font-weight="bold" font-family="Helvetica" line-spacing="18" fill="#FF9933" font-size="18" sketch:type="MSTextLayer">
                            <text id="HEALTHCARE-FACILITIES">
                                <tspan x="0" y="18">HEALTHCARE FACILITIES</tspan>
                            </text>
                        </g>
                    </g>
                </g>
            </g>
        </g>
    </g>
</svg>