<?xml version="1.0" encoding="UTF-8" standalone="no"?>
<svg width="624px" height="287px" viewBox="0 0 624 287" version="1.1" xmlns="http://www.w3.org/2000/svg" xmlns:xlink="http://www.w3.org/1999/xlink" xmlns:sketch="http://www.bohemiancoding.com/sketch/ns">
    <!-- Generator: Sketch 3.2.2 (9983) - http://www.bohemiancoding.com/sketch -->
    <title>4weekkit</title>
    <desc>Created with Sketch.</desc>
    <defs></defs>
    <g id="Page-1" stroke="none" stroke-width="1" fill="none" fill-rule="evenodd" sketch:type="MSPage">
        <text id="Gallons-of-water" sketch:type="MSTextLayer" font-family="Helvetica" font-size="24" font-weight="normal" fill="#81C6C2">
            <tspan x="222" y="132">Gallons of water</tspan>
            <tspan x="222" y="161" font-size="18">per person</tspan>
        </text>
        <text id="Weeks-of-supplies" sketch:type="MSTextLayer" font-family="Helvetica" font-size="24" font-weight="normal" fill="#81C6C2">
            <tspan x="141" y="23">Weeks of supplies</tspan>
            <tspan x="141" y="52" font-size="18">per person</tspan>
        </text>
        <text id="140" sketch:type="MSTextLayer" font-family="Helvetica" font-size="72" font-weight="normal" fill="#81C6C2">
            <tspan x="80" y="161">140</tspan>
        </text>
        <text id="4" sketch:type="MSTextLayer" font-family="Helvetica" font-size="72" font-weight="normal" fill="#81C6C2">
            <tspan x="80" y="51">4</tspan>
        </text>
        <text id="56,000" sketch:type="MSTextLayer" font-family="Helvetica" font-size="72" font-weight="normal" fill="#81C6C2">
            <tspan x="80" y="260">56,000</tspan>
        </text>
        <text id="calories-of-shelf-st" sketch:type="MSTextLayer" font-family="Helvetica" font-size="24" font-weight="normal" fill="#81C6C2">
            <tspan x="321" y="232">calories of shelf-stable food</tspan>
            <tspan x="321" y="261" font-size="18">per person</tspan>
        </text>
        <g id="noun_3810-2" sketch:type="MSLayerGroup" transform="translate(2.000000, 109.000000)" fill="#81C6C2">
            <path d="M30.6205778,21.6542813 C26.4376444,17.1195313 23.9604444,13.7965625 21.8225333,7.25421875 C19.6611556,13.78275 17.1560889,17.0897813 12.9438222,21.5979688 C10.1806222,24.56075 8.72177778,28.2715313 8.712,31.7650313 C8.69146667,39.5180938 14.5160889,45.8261563 21.7179111,45.8495313 C28.9172889,45.872375 34.7683111,39.6020313 34.7908,31.8489688 C34.8000889,28.3554688 33.374,24.635125 30.6205778,21.6542813 L30.6205778,21.6542813 Z M21.8953778,40.9939063 L21.8924444,42.1175 C16.7762222,42.1005 12.6548889,37.6300313 12.6695556,32.1305313 L14.3097778,32.136375 C14.5644889,36.841125 17.5002667,40.0631563 21.8973333,40.3595938 L21.8953778,40.9939063 L21.8953778,40.9939063 Z" id="Shape" sketch:type="MSShapeGroup"></path>
            <path d="M32.9442667,50.5845625 L10.3072444,50.5123125 C8.30328889,50.504875 6.49537778,48.8245312 6.18933333,46.6867812 L0.108044444,4.41521875 C-0.0523111111,3.30171875 0.226844444,2.1876875 0.876577778,1.36159375 C1.53071111,0.5301875 2.50946667,0.05365625 3.56155556,0.0541875 L40.1612444,0.05896875 C41.2221333,0.06109375 42.1974667,0.541875 42.8457333,1.3738125 C43.4900889,2.20203125 43.7633778,3.3160625 43.5942222,4.43115625 L37.0895556,46.7951562 C36.7668889,48.9244062 34.9462667,50.5914687 32.9442667,50.5845625 L32.9442667,50.5845625 Z M40.1627111,3.59603125 L3.56106667,3.59125 C3.46475556,3.59178125 3.38604444,3.6178125 3.35133333,3.661375 C3.32053333,3.70015625 3.31075556,3.77453125 3.32493333,3.86696875 L9.40622222,46.1395937 C9.46635556,46.55875 9.91711111,46.971 10.3170222,46.973125 L32.9535556,47.045375 C33.3549333,47.0464375 33.8149778,46.6363125 33.8775556,46.2182187 L40.3822222,3.85315625 C40.3949333,3.767625 40.3871111,3.69378125 40.3607111,3.65978125 C40.3299111,3.621 40.2541333,3.5965625 40.1627111,3.59603125 L40.1627111,3.59603125 Z" id="Shape" sketch:type="MSShapeGroup"></path>
        </g>
        <g id="noun_109955-calendar-2" sketch:type="MSLayerGroup" fill="#81C6C2">
            <g id="January" sketch:type="MSShapeGroup">
                <g id="16-02-2015---calendar">
                    <path d="M38.8860759,4.69736842 L43.1333521,4.69736842 C45.8211275,4.69736842 48,7.10542784 48,10.0654344 L48,45.6319341 C48,48.596635 45.8285761,51 43.1333521,51 L4.86664794,51 C2.17887251,51 0,48.5919406 0,45.6319341 L0,10.0654344 C0,7.10073342 2.17142388,4.69736842 4.86664794,4.69736842 L9.11392405,4.69736842 L9.11392405,7.38156539 C9.11392405,8.86161821 10.2020421,10.0657895 11.5443038,10.0657895 C12.8838342,10.0657895 13.9746835,8.86402138 13.9746835,7.38156539 L13.9746835,4.69736842 L34.0253165,4.69736842 L34.0253165,7.38156539 C34.0253165,8.86161821 35.1134345,10.0657895 36.4556962,10.0657895 C37.7952266,10.0657895 38.8860759,8.86402138 38.8860759,7.38156539 L38.8860759,4.69736842 L38.8860759,4.69736842 Z M2.43037975,17.5900944 L2.43037975,46.1599056 C2.43037975,47.3477739 3.52223714,48.3157895 4.86664794,48.3157895 L43.1333521,48.3157895 C44.483861,48.3157895 45.5696203,47.3527435 45.5696203,46.1599056 L45.5696203,17.5900944 L2.43037975,17.5900944 L2.43037975,17.5900944 Z M21.2658228,22.8140392 C21.2658228,22.0737815 21.8101414,21.4736842 22.4794279,21.4736842 L25.5205721,21.4736842 C26.1908277,21.4736842 26.7341772,22.0748519 26.7341772,22.8140392 L26.7341772,26.1728029 C26.7341772,26.9130606 26.1898586,27.5131579 25.5205721,27.5131579 L22.4794279,27.5131579 C21.8091723,27.5131579 21.2658228,26.9119902 21.2658228,26.1728029 L21.2658228,22.8140392 L21.2658228,22.8140392 Z M28.556962,22.8140392 C28.556962,22.0737815 29.1012807,21.4736842 29.7705671,21.4736842 L32.8117114,21.4736842 C33.481967,21.4736842 34.0253165,22.0748519 34.0253165,22.8140392 L34.0253165,26.1728029 C34.0253165,26.9130606 33.4809978,27.5131579 32.8117114,27.5131579 L29.7705671,27.5131579 C29.1003115,27.5131579 28.556962,26.9119902 28.556962,26.1728029 L28.556962,22.8140392 L28.556962,22.8140392 Z M35.8481013,22.8140392 C35.8481013,22.0737815 36.3924199,21.4736842 37.0617063,21.4736842 L40.1028506,21.4736842 C40.7731062,21.4736842 41.3164557,22.0748519 41.3164557,22.8140392 L41.3164557,26.1728029 C41.3164557,26.9130606 40.772137,27.5131579 40.1028506,27.5131579 L37.0617063,27.5131579 C36.3914508,27.5131579 35.8481013,26.9119902 35.8481013,26.1728029 L35.8481013,22.8140392 L35.8481013,22.8140392 Z M6.6835443,30.8666707 C6.6835443,30.1264131 7.22786297,29.5263158 7.89714939,29.5263158 L10.9382937,29.5263158 C11.6085492,29.5263158 12.1518987,30.1274835 12.1518987,30.8666707 L12.1518987,34.2254345 C12.1518987,34.9656921 11.6075801,35.5657895 10.9382937,35.5657895 L7.89714939,35.5657895 C7.22689379,35.5657895 6.6835443,34.9646217 6.6835443,34.2254345 L6.6835443,30.8666707 L6.6835443,30.8666707 Z M13.9746835,30.8666707 C13.9746835,30.1264131 14.5190022,29.5263158 15.1882886,29.5263158 L18.2294329,29.5263158 C18.8996885,29.5263158 19.443038,30.1274835 19.443038,30.8666707 L19.443038,34.2254345 C19.443038,34.9656921 18.8987193,35.5657895 18.2294329,35.5657895 L15.1882886,35.5657895 C14.518033,35.5657895 13.9746835,34.9646217 13.9746835,34.2254345 L13.9746835,30.8666707 L13.9746835,30.8666707 Z M21.2658228,30.8666707 C21.2658228,30.1264131 21.8101414,29.5263158 22.4794279,29.5263158 L25.5205721,29.5263158 C26.1908277,29.5263158 26.7341772,30.1274835 26.7341772,30.8666707 L26.7341772,34.2254345 C26.7341772,34.9656921 26.1898586,35.5657895 25.5205721,35.5657895 L22.4794279,35.5657895 C21.8091723,35.5657895 21.2658228,34.9646217 21.2658228,34.2254345 L21.2658228,30.8666707 L21.2658228,30.8666707 Z M28.556962,30.8666707 C28.556962,30.1264131 29.1012807,29.5263158 29.7705671,29.5263158 L32.8117114,29.5263158 C33.481967,29.5263158 34.0253165,30.1274835 34.0253165,30.8666707 L34.0253165,34.2254345 C34.0253165,34.9656921 33.4809978,35.5657895 32.8117114,35.5657895 L29.7705671,35.5657895 C29.1003115,35.5657895 28.556962,34.9646217 28.556962,34.2254345 L28.556962,30.8666707 L28.556962,30.8666707 Z M35.8481013,30.8666707 C35.8481013,30.1264131 36.3924199,29.5263158 37.0617063,29.5263158 L40.1028506,29.5263158 C40.7731062,29.5263158 41.3164557,30.1274835 41.3164557,30.8666707 L41.3164557,34.2254345 C41.3164557,34.9656921 40.772137,35.5657895 40.1028506,35.5657895 L37.0617063,35.5657895 C36.3914508,35.5657895 35.8481013,34.9646217 35.8481013,34.2254345 L35.8481013,30.8666707 L35.8481013,30.8666707 Z M6.6835443,38.9193023 C6.6835443,38.1790447 7.22786297,37.5789474 7.89714939,37.5789474 L10.9382937,37.5789474 C11.6085492,37.5789474 12.1518987,38.1801151 12.1518987,38.9193023 L12.1518987,42.2780661 C12.1518987,43.0183237 11.6075801,43.6184211 10.9382937,43.6184211 L7.89714939,43.6184211 C7.22689379,43.6184211 6.6835443,43.0172533 6.6835443,42.2780661 L6.6835443,38.9193023 L6.6835443,38.9193023 Z M13.9746835,38.9193023 C13.9746835,38.1790447 14.5190022,37.5789474 15.1882886,37.5789474 L18.2294329,37.5789474 C18.8996885,37.5789474 19.443038,38.1801151 19.443038,38.9193023 L19.443038,42.2780661 C19.443038,43.0183237 18.8987193,43.6184211 18.2294329,43.6184211 L15.1882886,43.6184211 C14.518033,43.6184211 13.9746835,43.0172533 13.9746835,42.2780661 L13.9746835,38.9193023 L13.9746835,38.9193023 Z M21.2658228,38.9193023 C21.2658228,38.1790447 21.8101414,37.5789474 22.4794279,37.5789474 L25.5205721,37.5789474 C26.1908277,37.5789474 26.7341772,38.1801151 26.7341772,38.9193023 L26.7341772,42.2780661 C26.7341772,43.0183237 26.1898586,43.6184211 25.5205721,43.6184211 L22.4794279,43.6184211 C21.8091723,43.6184211 21.2658228,43.0172533 21.2658228,42.2780661 L21.2658228,38.9193023 L21.2658228,38.9193023 Z M28.556962,38.9193023 C28.556962,38.1790447 29.1012807,37.5789474 29.7705671,37.5789474 L32.8117114,37.5789474 C33.481967,37.5789474 34.0253165,38.1801151 34.0253165,38.9193023 L34.0253165,42.2780661 C34.0253165,43.0183237 33.4809978,43.6184211 32.8117114,43.6184211 L29.7705671,43.6184211 C29.1003115,43.6184211 28.556962,43.0172533 28.556962,42.2780661 L28.556962,38.9193023 L28.556962,38.9193023 Z M34.6329114,2.01540673 C34.6329114,0.902328371 35.4510484,0 36.4556962,0 C37.4623924,0 38.278481,0.900806893 38.278481,2.01540673 L38.278481,7.37933012 C38.278481,8.49240847 37.460344,9.39473684 36.4556962,9.39473684 C35.449,9.39473684 34.6329114,8.49392995 34.6329114,7.37933012 L34.6329114,2.01540673 L34.6329114,2.01540673 Z M9.72151899,2.01540673 C9.72151899,0.902328371 10.539656,0 11.5443038,0 C12.551,0 13.3670886,0.900806893 13.3670886,2.01540673 L13.3670886,7.37933012 C13.3670886,8.49240847 12.5489516,9.39473684 11.5443038,9.39473684 C10.5376076,9.39473684 9.72151899,8.49392995 9.72151899,7.37933012 L9.72151899,2.01540673 L9.72151899,2.01540673 Z" id="calendar"></path>
                </g>
            </g>
        </g>
        <g id="noun_49681-cans-copy" sketch:type="MSLayerGroup" transform="translate(3.000000, 209.000000)" fill="#81C6C2">
            <path d="M30.234375,3.62368421 C29.7640625,3.15394737 26.6734375,2.34868421 21.5,2.34868421 C16.3265625,2.34868421 13.2359375,3.15394737 12.765625,3.62368421 C13.2359375,4.09342105 16.3265625,4.89868421 21.5,4.89868421 C26.6734375,4.89868421 29.7640625,4.09342105 30.234375,3.62368421 L30.234375,3.62368421 Z M42.4625,24.9631579 C41.521875,23.0842105 35.4078125,22.6144737 32.0484375,22.6144737 L32.0484375,2.95263158 L31.9140625,2.55 C30.9734375,0.671052632 24.859375,0.134210526 21.5,0.134210526 C18.140625,0.134210526 12.0265625,0.671052632 11.0859375,2.55 L10.9515625,2.95263158 L10.9515625,22.6144737 C7.5921875,22.6144737 1.478125,23.1513158 0.5375,24.9631579 L0.403125,25.3657895 L0.403125,46.4368421 C0.403125,48.9197368 4.9046875,50.7986842 10.9515625,50.7986842 C16.9984375,50.7986842 21.5,48.9868421 21.5,46.5039474 C21.5,48.9868421 26.0015625,50.8657895 32.0484375,50.8657895 C38.0953125,50.8657895 42.596875,48.9868421 42.596875,46.5039474 L42.596875,25.3657895 L42.4625,24.9631579 L42.4625,24.9631579 Z M21.5,1.40921053 C22.5078125,1.40921053 31.2421875,1.47631579 31.2421875,3.62368421 C31.2421875,5.77105263 22.5078125,5.83815789 21.5,5.83815789 C20.4921875,5.83815789 11.7578125,5.77105263 11.7578125,3.62368421 C11.7578125,1.47631579 20.4921875,1.40921053 21.5,1.40921053 L21.5,1.40921053 Z M1.209375,26.1039474 C1.209375,23.9565789 9.94375,23.8894737 10.9515625,23.8894737 L10.9515625,23.8894737 L10.9515625,24.0907895 C10.9515625,24.3592105 11.01875,24.6276316 11.0859375,24.8960526 L10.9515625,24.8960526 C5.778125,24.8960526 2.6875,25.7013158 2.2171875,26.1710526 C2.6875,26.6407895 5.778125,27.4460526 10.9515625,27.4460526 C12.1609375,27.4460526 13.2359375,27.3789474 14.1765625,27.3118421 C14.915625,27.5802632 15.721875,27.8486842 16.6625,28.05 C14.24375,28.3855263 11.4890625,28.3855263 10.9515625,28.3855263 C9.94375,28.3184211 1.209375,28.2513158 1.209375,26.1039474 L1.209375,26.1039474 Z M20.021875,46.3026316 C20.021875,47.8460526 16.3265625,49.5236842 10.9515625,49.5236842 C5.64375,49.5236842 1.88125,47.8460526 1.88125,46.3026316 L1.88125,38.25 C2.821875,38.9210526 5.1734375,39.4578947 8.1296875,39.7263158 C8.196875,38.25 9.4734375,37.0421053 10.9515625,37.0421053 C12.4296875,37.0421053 13.70625,38.25 13.7734375,39.7263158 C16.7296875,39.525 19.0140625,38.9881579 20.021875,38.25 L20.021875,46.3026316 L20.021875,46.3026316 Z M21.5,27.0434211 L20.4921875,27.0434211 L20.4921875,27.0434211 C20.15625,27.0434211 19.8203125,26.9763158 19.484375,26.9763158 C18.6109375,26.9092105 17.8046875,26.775 16.9984375,26.6407895 L16.9984375,26.6407895 C16.7296875,26.5736842 16.4609375,26.5065789 16.259375,26.4394737 L16.259375,26.4394737 C15.990625,26.3723684 15.7890625,26.3052632 15.5875,26.2381579 L15.5875,26.2381579 C15.3859375,26.1710526 15.184375,26.1039474 14.9828125,26.0368421 L14.9828125,26.0368421 C14.78125,25.9697368 14.5796875,25.9026316 14.4453125,25.7684211 L14.4453125,25.7684211 C14.24375,25.7013158 14.109375,25.6342105 13.975,25.5 L13.975,25.5 C13.840625,25.4328947 13.70625,25.2986842 13.571875,25.2315789 L13.571875,25.2315789 C13.4375,25.1644737 13.303125,25.0302632 13.2359375,24.9631579 L13.2359375,24.9631579 C13.1015625,24.8960526 13.034375,24.7618421 12.9671875,24.6947368 C12.765625,24.4263158 12.63125,24.1578947 12.63125,23.9565789 L12.63125,15.9039474 C13.571875,16.575 15.85625,17.1118421 18.8125,17.3131579 C18.8796875,15.8368421 20.15625,14.6960526 21.634375,14.6960526 C23.1125,14.6960526 24.3890625,15.8368421 24.45625,17.3131579 C27.3453125,17.1118421 29.696875,16.575 30.6375,15.9039474 L30.6375,23.8894737 C30.6375,24.1578947 30.503125,24.4263158 30.3015625,24.6276316 L30.3015625,24.6276316 C30.234375,24.6947368 30.1671875,24.8289474 30.0328125,24.8960526 L30.0328125,24.8960526 C29.8984375,24.9631579 29.83125,25.0973684 29.696875,25.1644737 L29.696875,25.1644737 C29.5625,25.2315789 29.428125,25.3657895 29.29375,25.4328947 L29.29375,25.4328947 C29.159375,25.5 28.9578125,25.6342105 28.8234375,25.7013158 L28.8234375,25.7013158 C28.621875,25.7684211 28.4875,25.8355263 28.2859375,25.9697368 L28.2859375,25.9697368 C28.084375,26.0368421 27.8828125,26.1039474 27.68125,26.1710526 L27.68125,26.1710526 C27.4796875,26.2381579 27.2109375,26.3052632 27.009375,26.3723684 L27.009375,26.3723684 C26.740625,26.4394737 26.5390625,26.5065789 26.2703125,26.5736842 C25.53125,26.7078947 24.725,26.8421053 23.784375,26.9092105 C23.4484375,26.9092105 23.1125,26.9763158 22.7765625,26.9763158 L22.7765625,26.9763158 C22.171875,27.0434211 21.8359375,27.0434211 21.5,27.0434211 L21.5,27.0434211 Z M40.984375,46.3026316 C40.984375,47.7789474 37.2890625,49.4565789 32.0484375,49.4565789 C26.740625,49.4565789 23.1125,47.7789474 23.1125,46.3026316 L23.1125,38.3171053 C24.053125,38.9881579 26.3375,39.525 29.2265625,39.7263158 C29.29375,38.25 30.5703125,37.1092105 32.0484375,37.1092105 C33.5265625,37.1092105 34.7359375,38.25 34.8703125,39.7263158 C37.759375,39.525 40.1109375,38.9881579 40.984375,38.3171053 L40.984375,46.3026316 L40.984375,46.3026316 Z M32.0484375,28.3184211 C31.5109375,28.3184211 28.75625,28.3184211 26.3375,27.9828947 C27.278125,27.7815789 28.084375,27.5802632 28.8234375,27.2447368 C29.7640625,27.3118421 30.8390625,27.3789474 32.0484375,27.3789474 C37.221875,27.3789474 40.3125,26.5736842 40.7828125,26.1039474 C40.3125,25.6342105 37.221875,24.8289474 32.0484375,24.8289474 L31.9140625,24.8289474 C32.0484375,24.5605263 32.0484375,24.2921053 32.0484375,24.0236842 L32.0484375,23.8223684 C33.05625,23.8223684 41.790625,23.8894737 41.790625,26.0368421 C41.790625,28.2513158 33.05625,28.3184211 32.0484375,28.3184211 L32.0484375,28.3184211 Z" id="Shape" sketch:type="MSShapeGroup"></path>
        </g>
    </g>
</svg>