<?xml version="1.0" encoding="UTF-8" standalone="no"?>
<svg width="596px" height="162px" viewBox="0 0 596 162" version="1.1" xmlns="http://www.w3.org/2000/svg" xmlns:xlink="http://www.w3.org/1999/xlink" xmlns:sketch="http://www.bohemiancoding.com/sketch/ns">
    <!-- Generator: Sketch 3.2.2 (9983) - http://www.bohemiancoding.com/sketch -->
    <title>AftershockTitle3</title>
    <desc>Created with Sketch.</desc>
    <defs></defs>
    <g id="Page-1" stroke="none" stroke-width="1" fill="none" fill-rule="evenodd" sketch:type="MSPage">
        <g id="Imported-Layers" sketch:type="MSLayerGroup" fill="#FF9933">
            <path d="M2.125,139.898 L12.978,143.818 L6.949,157.083 L0.618,157.083 L2.125,139.898 L2.125,139.898 Z M32.876,103.118 L13.883,143.516 L3.03,139.898 L7.853,93.471 L30.464,95.883 L30.163,103.118 L32.876,103.118 L32.876,103.118 Z M29.56,94.677 L6.949,92.265 L11.772,42.22 L10.566,42.22 L14.486,3.63 L28.957,3.63 L40.111,44.933 L41.92,45.536 L42.825,48.249 L42.825,49.154 L54.582,52.169 L54.884,50.963 L44.332,48.249 L37.398,2.123 L52.773,2.123 L57.597,50.36 L57.296,51.565 L56.391,51.264 L60.913,97.39 L62.421,97.692 L65.436,127.538 L57.296,97.39 L56.09,97.089 L56.391,98.295 L51.869,97.692 L39.207,96.486 L38.905,90.456 L47.045,72.669 L46.744,70.86 L47.95,68.147 L47.347,66.941 L46.442,69.353 L44.633,62.117 L45.538,69.353 L36.795,88.949 L34.383,48.551 L33.177,47.948 L32.273,34.683 L31.368,34.683 L30.766,43.727 L31.67,44.029 L29.56,94.677 L29.56,94.677 Z M7.25,158.892 L13.28,145.325 L26.846,150.149 L26.545,158.892 L7.25,158.892 L7.25,158.892 Z M66.34,156.48 L60.913,156.48 L61.215,158.289 L54.884,158.289 L42.523,154.068 L41.016,124.825 L29.861,124.825 L28.655,149.244 L14.787,144.722 L33.78,104.626 L40.111,104.626 L39.81,98.596 L50.663,99.802 L50.362,98.295 L56.09,98.897 L64.23,129.648 L66.34,156.48 L66.34,156.48 Z M44.332,48.551 L44.332,48.551 L31.67,2.425 L37.398,2.425 L44.332,48.551 L44.332,48.551 Z M38.604,159.193 L38.303,154.972 L50.362,159.193 L38.604,159.193 L38.604,159.193 Z" id="Fill-1" sketch:type="MSShapeGroup"></path>
            <path d="M94.679,6.344 L111.562,5.439 L111.562,20.212 L105.834,20.212 C103.12,20.212 101.613,22.322 101.613,26.543 L101.613,32.271 L111.562,32.271 L111.562,49.757 L101.613,49.757 L101.613,57.595 L101.01,57.294 L101.01,87.14 L88.348,81.713 L78.399,56.691 L78.399,48.852 L75.384,48.852 L74.781,46.44 L74.178,46.44 L74.178,45.536 L73.877,44.933 L73.575,44.933 L73.274,43.426 L72.972,43.426 L72.972,41.617 L72.972,41.918 L72.972,32.271 L79.002,32.271 L79.002,26.241 C79.002,24.131 79.002,22.021 79.303,20.212 C79.303,18.403 79.605,16.594 80.208,15.388 L94.679,6.344 L94.679,6.344 Z M88.046,80.809 L100.708,113.67 L100.708,156.178 L95.885,156.178 L98.297,158.59 L93.774,158.59 L81.715,154.972 L81.715,154.068 L77.796,154.068 L77.796,150.45 L81.715,151.656 L81.715,142.612 L77.796,138.693 L77.796,78.397 L77.495,78.397 L77.495,57.294 L86.84,80.507 L88.046,80.809 L88.046,80.809 Z M91.363,5.741 L79.303,12.976 C79.906,11.168 80.509,9.359 81.112,8.153 C81.715,6.947 82.921,5.741 84.127,4.535 L85.936,4.535 C89.554,3.028 94.076,2.123 99.503,2.123 L93.774,5.741 L91.363,5.741 L91.363,5.741 Z M90.157,82.618 L102.819,88.044 L102.819,115.78 L90.157,82.618 L90.157,82.618 Z M113.672,0.917 L113.672,3.63 L96.789,4.535 L102.517,0.917 L113.672,0.917 L113.672,0.917 Z" id="Fill-2" sketch:type="MSShapeGroup"></path>
            <path d="M152.261,31.668 L152.261,45.234 L143.518,45.234 L143.518,47.345 L138.695,45.837 L138.996,46.742 L137.79,46.44 L138.393,47.646 L143.82,49.455 L143.82,62.117 L144.121,62.72 L144.121,69.654 L144.724,69.654 L144.724,121.81 L121.812,119.699 L121.812,69.654 L120.606,69.654 L120.606,54.882 L118.797,56.088 L118.797,47.345 L112.768,47.345 L112.768,39.808 L113.371,40.109 L113.371,30.462 L119.099,30.462 L119.099,10.866 L117.893,7.248 L117.893,2.123 L132.967,2.123 L140.805,10.263 L140.805,30.764 L149.548,30.764 L149.548,33.175 L152.261,31.668 L152.261,31.668 Z M142.312,139.898 C143.217,140.803 144.724,141.104 147.136,141.104 L150.151,141.104 L150.151,158.892 L140.805,158.892 C135.68,158.892 131.459,158.289 128.444,157.384 C125.43,156.48 123.018,154.972 121.812,152.862 C120.304,150.752 119.4,148.038 119.099,144.722 C118.797,141.406 118.496,137.487 118.496,132.663 L118.496,124.222 L141.408,125.729 L141.408,135.075 C140.805,137.487 141.408,138.994 142.312,139.898 L142.312,139.898 Z M137.187,44.933 L136.584,44.632 L136.283,44.33 L135.981,44.632 L137.187,44.933 L137.187,44.933 Z M145.327,10.565 L137.79,2.425 L145.327,2.425 L145.327,10.565 L145.327,10.565 Z" id="Fill-3" sketch:type="MSShapeGroup"></path>
            <path d="M187.534,133.869 L210.145,140.501 C210.145,144.421 209.542,147.737 208.336,150.149 C207.432,152.561 205.623,154.671 203.814,155.877 C201.704,157.384 198.99,158.289 195.674,158.892 C192.358,159.495 188.137,159.796 183.313,159.796 C178.188,159.796 173.967,159.495 170.35,158.892 C167.033,158.289 164.32,157.083 162.511,155.274 C160.703,153.465 159.195,151.053 158.291,148.038 C157.386,145.024 157.085,140.803 157.085,135.979 L157.085,125.428 L157.688,125.729 L157.688,77.493 L180.6,64.228 L180.6,83.221 L187.836,83.221 L187.836,65.132 L210.446,89.552 L210.446,101.008 L180.902,101.008 L180.902,132.663 L180.299,131.759 L180.299,135.678 C180.299,137.788 180.6,139.597 180.902,140.501 C181.203,141.406 182.409,142.009 183.615,142.009 C185.424,142.009 186.328,141.406 186.931,140.2 C187.233,138.994 187.534,137.487 187.534,135.678 L187.534,133.869 L187.534,133.869 Z M181.806,61.213 L158.894,74.478 L158.894,54.279 C158.894,49.455 159.195,45.536 159.798,42.823 C160.401,39.808 161.607,37.396 163.416,35.587 L163.717,35.889 C164.019,35.587 164.32,35.587 164.622,35.286 L164.32,35.286 L164.622,34.984 L164.923,34.984 C166.732,33.778 169.445,33.175 172.46,32.572 C175.776,32.271 179.394,31.969 183.916,31.969 C192.056,31.969 198.086,32.874 202.005,34.683 C205.924,36.492 208.336,40.411 209.542,46.139 L198.086,52.771 L196.88,52.169 L189.041,56.691 L189.041,53.676 C189.041,51.867 188.74,50.36 188.438,49.455 C188.137,48.249 187.233,47.948 185.725,47.948 C183.916,47.948 182.71,48.551 182.409,49.455 C182.107,50.36 181.806,51.867 181.806,53.977 L181.806,54.279 L168.842,39.506 L167.637,39.205 L181.806,54.279 L181.806,61.213 L181.806,61.213 Z M199.895,52.47 L210.446,46.44 C211.049,49.154 211.351,52.47 211.351,56.691 L211.351,56.992 L211.652,56.992 L211.652,87.743 L188.74,63.323 L188.74,58.198 L199.292,52.169 L199.895,52.47 L199.895,52.47 Z M214.366,108.846 L214.366,136.884 L191.453,129.95 L191.453,108.545 L214.366,108.545 L214.366,108.846 L214.366,108.846 Z" id="Fill-4" sketch:type="MSShapeGroup"></path>
            <path d="M267.727,31.366 C269.837,32.572 271.345,34.683 272.551,37.396 C273.757,40.109 274.36,43.124 274.661,46.742 C274.963,50.36 275.264,54.58 275.264,59.102 L275.264,70.257 L253.558,69.956 L253.558,54.58 C253.558,52.47 253.256,50.661 252.955,49.757 C252.352,48.551 251.447,48.249 249.94,48.249 C248.433,48.249 247.528,48.852 247.227,49.757 C246.624,50.962 246.624,52.47 246.624,54.58 L246.624,69.956 L223.711,69.353 L223.711,30.161 L246.624,30.161 L246.624,35.286 C248.433,33.175 250.543,31.668 252.955,30.764 C255.366,29.859 257.477,29.256 259.587,29.256 C262.903,29.558 265.617,30.161 267.727,31.366 L267.727,31.366 Z M224.013,110.354 L247.227,112.163 L247.227,159.495 L224.013,159.495 L224.013,110.354 L224.013,110.354 Z M224.917,70.257 L247.528,70.559 L247.528,110.957 L224.917,109.449 L224.917,70.257 L224.917,70.257 Z M252.955,72.367 L274.661,72.669 L274.661,84.427 L252.955,84.427 L252.955,72.367 L252.955,72.367 Z" id="Fill-5" sketch:type="MSShapeGroup"></path>
            <path d="M282.801,115.78 L280.389,115.177 L280.389,110.655 L303.603,110.655 L303.603,113.67 L298.779,116.685 L301.191,116.685 L282.801,129.95 L282.801,115.78 L282.801,115.78 Z M286.117,93.772 C284.61,92.265 283.404,90.456 282.5,88.647 C281.595,86.838 281.294,84.728 280.992,82.618 C280.691,80.507 280.691,78.096 280.691,75.382 L280.691,73.875 L303.904,74.176 C303.904,77.493 304.507,79.603 306.015,80.507 C307.221,81.713 309.633,82.919 312.949,84.728 L324.706,91.361 C326.214,92.265 327.42,93.471 328.324,94.375 C329.53,95.28 330.435,96.184 331.339,97.089 L310.838,111.861 C310.838,110.655 310.236,109.449 309.331,108.545 C308.427,107.339 306.618,106.133 304.206,104.626 L293.051,98.596 C290.036,97.089 287.625,95.28 286.117,93.772 L286.117,93.772 Z M311.743,120.604 L334.957,122.111 L334.957,132.362 C334.957,138.391 334.655,143.215 334.052,147.134 C333.449,150.752 332.243,153.767 330.435,155.877 C328.626,157.987 325.912,159.495 322.295,160.098 C318.677,160.701 313.853,161.303 307.522,161.303 C301.493,161.303 296.97,161.002 293.353,160.098 C289.735,159.193 287.323,157.686 285.514,155.877 C283.705,153.767 282.5,151.053 281.897,147.435 C281.294,143.818 280.992,139.296 280.992,133.567 L299.382,120.302 L304.206,120.604 L304.206,137.487 C304.206,142.009 305.412,144.119 307.522,144.119 C309.03,144.119 309.934,143.516 310.537,142.612 C310.838,141.406 311.14,139.898 311.14,137.788 L311.14,120.604 L311.743,120.604 L311.743,120.604 Z M305.412,71.162 L282.198,70.86 L282.198,55.786 C282.198,50.058 282.5,45.536 283.404,42.22 C284.308,38.602 285.514,36.19 287.625,34.08 C289.735,32.271 292.75,30.764 296.367,30.161 C299.985,29.558 304.809,28.955 310.236,28.955 C315.964,28.955 320.486,29.256 323.802,30.161 C327.118,31.065 329.832,32.572 331.339,34.683 C333.148,36.793 334.052,39.808 334.655,43.727 C334.957,47.345 335.258,52.169 335.258,57.897 L335.258,71.463 L311.743,71.162 L311.743,53.073 C311.743,50.962 311.441,49.455 311.14,48.249 C310.838,47.043 309.633,46.742 308.125,46.742 C306.919,46.742 306.015,47.345 305.713,48.551 C305.412,49.757 305.11,51.264 305.11,53.073 L305.11,71.162 L305.412,71.162 L305.412,71.162 Z M302.698,116.383 L307.824,113.369 L307.824,116.685 L302.698,116.383 L302.698,116.383 Z M310.236,73.875 L333.148,74.176 L333.148,75.382 L310.236,75.382 L310.236,73.875 L310.236,73.875 Z M335.861,103.721 C336.163,106.133 336.464,108.846 336.464,112.163 L336.464,122.111 L313.25,120.604 L313.25,114.574 L313.25,113.067 C313.25,112.464 313.25,111.861 312.949,111.258 L333.449,97.089 C334.655,98.897 335.56,101.309 335.861,103.721 L335.861,103.721 Z" id="Fill-6" sketch:type="MSShapeGroup"></path>
            <path d="M401.282,151.053 L401.282,154.369 L378.37,154.369 L378.37,139.898 L378.671,139.898 L378.671,64.228 L378.37,63.926 L378.37,56.389 C378.37,52.47 377.164,50.36 374.45,50.36 C372.34,50.36 371.134,52.169 370.832,55.485 L371.435,56.088 L371.435,139.898 L370.23,139.296 L370.23,154.972 L356.06,154.972 L354.251,154.068 L349.126,154.068 L349.126,151.958 L347.317,151.053 L347.317,126.634 L348.222,127.236 L348.222,32.271 L347.92,31.969 L347.92,3.932 L356.663,3.932 L370.23,11.77 L370.23,37.698 C372.34,35.587 374.45,34.08 376.561,33.175 C378.671,32.271 380.781,31.969 382.892,31.969 C386.509,31.969 389.524,32.572 391.936,34.08 C394.348,35.587 396.157,37.396 397.363,40.109 C398.569,42.823 399.473,45.837 399.775,49.455 C400.076,53.073 400.377,57.294 400.377,61.816 L400.377,86.235 L400.679,86.537 L400.679,151.053 L401.282,151.053 L401.282,151.053 Z M370.23,8.454 L356.06,0.616 L370.23,0.616 L370.23,8.454 L370.23,8.454 Z" id="Fill-7" sketch:type="MSShapeGroup"></path>
            <path d="M438.966,143.215 C439.268,142.612 439.871,142.009 440.172,141.406 L462.783,149.244 C461.577,153.164 459.768,156.178 457.055,157.987 L455.246,156.781 C453.437,157.686 451.026,157.987 448.011,158.289 C445.298,158.59 441.981,158.59 438.062,158.59 C432.937,158.59 429.018,158.289 425.702,157.686 C422.385,157.083 419.672,155.877 417.863,154.369 C415.753,152.862 414.547,150.45 413.642,147.435 C412.738,144.421 412.437,140.803 412.135,135.979 L410.025,135.376 L410.025,130.251 L412.738,131.156 L412.738,90.456 L435.349,91.964 L435.349,138.693 C435.349,138.994 435.349,139.296 435.65,139.898 C435.65,140.2 435.952,140.501 435.952,140.803 L433.841,140.2 C433.841,141.104 434.143,142.31 434.746,142.913 C435.349,143.516 435.952,144.119 437.158,144.119 C437.761,144.119 438.364,143.818 438.966,143.215 L438.966,143.215 Z M415.753,72.97 L410.025,85.03 L410.025,69.353 L415.753,72.97 L415.753,72.97 Z M417.562,71.162 L413.642,68.448 L413.642,67.544 L421.481,67.544 L421.179,68.448 L434.143,68.448 L434.143,81.713 L435.047,82.618 L435.047,89.25 L412.135,87.743 L412.135,83.522 L416.959,72.97 L416.657,72.669 L417.562,71.162 L417.562,71.162 Z M468.511,90.456 L468.511,100.405 L451.026,89.552 L447.709,89.25 L442.584,86.235 L442.584,67.544 L440.474,67.544 L440.474,55.183 C440.474,53.374 440.172,51.867 439.871,50.661 C439.569,49.455 438.665,48.852 437.158,48.852 C435.349,48.852 434.143,49.455 433.841,50.661 C433.54,51.867 433.238,53.374 433.238,55.183 L433.238,67.544 L417.863,66.941 L418.466,65.132 L413.341,64.83 L413.341,53.977 C413.341,50.661 413.341,47.646 413.642,45.234 C413.944,42.823 414.547,40.712 415.451,38.602 L417.26,37.396 C418.466,35.587 419.973,34.08 422.084,32.874 C424.194,31.668 426.606,31.065 429.319,30.161 L431.43,29.256 C432.334,29.256 433.54,28.955 434.444,28.955 L437.761,28.955 L437.158,30.462 C442.283,30.462 446.504,30.764 450.121,31.366 C453.437,31.969 456.151,33.175 458.261,34.984 C460.372,36.793 461.577,39.205 462.482,42.521 C463.386,45.837 463.688,49.757 463.688,54.882 L463.688,65.735 L465.497,65.735 L465.497,89.552 L468.511,90.456 L468.511,90.456 Z M447.106,89.25 L465.195,100.405 L465.195,134.472 C465.195,137.185 465.195,139.597 464.894,141.707 C464.592,143.818 464.291,145.627 463.989,147.435 L441.378,139.597 C441.68,138.693 441.981,138.09 441.981,137.487 L441.981,135.075 L441.981,87.441 L444.092,88.949 L447.106,89.25 L447.106,89.25 Z" id="Fill-8" sketch:type="MSShapeGroup"></path>
            <path d="M528.505,79 L528.807,83.221 L506.498,83.221 L506.498,72.669 L504.99,72.367 L504.99,54.882 C504.99,53.073 504.689,51.565 504.387,50.36 C504.086,49.154 503.181,48.852 501.674,48.852 C500.167,48.852 498.961,49.455 498.659,50.36 C498.358,51.264 498.056,53.073 498.056,54.882 L498.056,70.257 L475.445,63.625 L475.445,50.36 L477.857,49.455 C478.159,45.837 478.762,43.124 479.968,41.014 C480.872,38.903 482.379,37.095 484.49,35.889 C486.6,34.683 489.012,33.778 492.328,33.175 C495.343,32.572 499.262,32.271 504.086,32.271 L508.005,32.271 L511.321,32.271 L513.13,31.366 C516.748,31.969 519.461,33.175 521.571,34.381 C523.682,35.889 525.189,37.698 526.094,40.411 L527.3,78.397 L527.903,78.397 L528.505,79 L528.505,79 Z M505.292,104.927 L528.204,104.927 L528.204,135.678 C528.204,140.501 527.903,144.421 527.299,147.435 C526.697,150.45 525.491,152.862 523.682,154.671 C521.873,156.48 519.763,157.686 516.748,158.289 C513.733,159.193 510.115,159.495 505.895,159.495 L498.056,157.083 C493.534,157.083 489.916,156.48 486.901,155.575 C483.887,154.671 481.776,153.164 479.968,151.355 L478.159,150.45 C476.651,146.832 475.747,142.009 475.747,135.678 L475.747,64.83 L498.659,71.463 L498.659,135.979 C498.659,138.09 498.961,139.898 499.262,140.803 C499.564,141.707 500.769,142.31 501.975,142.31 C503.483,142.31 504.689,141.707 504.99,140.501 C505.292,139.296 505.593,137.788 505.593,135.979 L505.593,104.927 L505.292,104.927 L505.292,104.927 Z M532.123,56.088 L532.123,79.904 L531.52,79.603 L530.314,41.315 C531.52,45.234 532.123,50.058 532.123,56.088 L532.123,56.088 Z" id="Fill-9" sketch:type="MSShapeGroup"></path>
            <path d="M561.668,97.39 L560.462,97.39 L560.462,153.465 L561.668,154.671 L561.668,158.892 L539.962,158.892 L539.962,143.215 L538.153,142.31 L538.153,31.065 L536.645,32.271 L536.645,2.123 L558.352,2.123 L558.352,15.388 L560.161,13.579 L560.161,76.588 L561.367,76.588 L570.411,28.653 L592.72,28.653 L580.36,86.235 L595.735,159.193 L571.918,159.193 L561.668,97.39" id="Fill-10" sketch:type="MSShapeGroup"></path>
        </g>
    </g>
</svg>