<?xml version="1.0" encoding="UTF-8" standalone="no"?>
<svg width="44px" height="51px" viewBox="0 0 44 51" version="1.1" xmlns="http://www.w3.org/2000/svg" xmlns:xlink="http://www.w3.org/1999/xlink" xmlns:sketch="http://www.bohemiancoding.com/sketch/ns">
    <!-- Generator: Sketch 3.2.2 (9983) - http://www.bohemiancoding.com/sketch -->
    <title>Water Icon</title>
    <desc>Created with Sketch.</desc>
    <defs></defs>
    <g id="Page-1" stroke="none" stroke-width="1" fill="none" fill-rule="evenodd" sketch:type="MSPage">
        <g id="noun_3810" sketch:type="MSLayerGroup" fill="#81C6C2">
            <path d="M30.6205778,21.6542813 C26.4376444,17.1195313 23.9604444,13.7965625 21.8225333,7.25421875 C19.6611556,13.78275 17.1560889,17.0897813 12.9438222,21.5979688 C10.1806222,24.56075 8.72177778,28.2715313 8.712,31.7650313 C8.69146667,39.5180938 14.5160889,45.8261563 21.7179111,45.8495313 C28.9172889,45.872375 34.7683111,39.6020313 34.7908,31.8489688 C34.8000889,28.3554688 33.374,24.635125 30.6205778,21.6542813 L30.6205778,21.6542813 Z M21.8953778,40.9939063 L21.8924444,42.1175 C16.7762222,42.1005 12.6548889,37.6300313 12.6695556,32.1305313 L14.3097778,32.136375 C14.5644889,36.841125 17.5002667,40.0631563 21.8973333,40.3595938 L21.8953778,40.9939063 L21.8953778,40.9939063 Z" id="Shape" sketch:type="MSShapeGroup"></path>
            <path d="M32.9442667,50.5845625 L10.3072444,50.5123125 C8.30328889,50.504875 6.49537778,48.8245312 6.18933333,46.6867812 L0.108044444,4.41521875 C-0.0523111111,3.30171875 0.226844444,2.1876875 0.876577778,1.36159375 C1.53071111,0.5301875 2.50946667,0.05365625 3.56155556,0.0541875 L40.1612444,0.05896875 C41.2221333,0.06109375 42.1974667,0.541875 42.8457333,1.3738125 C43.4900889,2.20203125 43.7633778,3.3160625 43.5942222,4.43115625 L37.0895556,46.7951562 C36.7668889,48.9244062 34.9462667,50.5914687 32.9442667,50.5845625 L32.9442667,50.5845625 Z M40.1627111,3.59603125 L3.56106667,3.59125 C3.46475556,3.59178125 3.38604444,3.6178125 3.35133333,3.661375 C3.32053333,3.70015625 3.31075556,3.77453125 3.32493333,3.86696875 L9.40622222,46.1395937 C9.46635556,46.55875 9.91711111,46.971 10.3170222,46.973125 L32.9535556,47.045375 C33.3549333,47.0464375 33.8149778,46.6363125 33.8775556,46.2182187 L40.3822222,3.85315625 C40.3949333,3.767625 40.3871111,3.69378125 40.3607111,3.65978125 C40.3299111,3.621 40.2541333,3.5965625 40.1627111,3.59603125 L40.1627111,3.59603125 Z" id="Shape" sketch:type="MSShapeGroup"></path>
        </g>
    </g>
</svg>