<?xml version="1.0" encoding="utf-8"?>
<!-- Generator: Adobe Illustrator 18.0.0, SVG Export Plug-In . SVG Version: 6.00 Build 0)  -->
<!DOCTYPE svg PUBLIC "-//W3C//DTD SVG 1.1//EN" "http://www.w3.org/Graphics/SVG/1.1/DTD/svg11.dtd">
<svg version="1.1" id="Layer_1" xmlns:sketch="http://www.bohemiancoding.com/sketch/ns"
	 xmlns="http://www.w3.org/2000/svg" xmlns:xlink="http://www.w3.org/1999/xlink" x="0px" y="0px" viewBox="0 0 146 112"
	 enable-background="new 0 0 146 112" xml:space="preserve">
<title>icon-deformation-5-5</title>
<desc>Created with Sketch.</desc>
<g id="Page-1" sketch:type="MSPage">
	<g id="Deformation-5" transform="translate(5.000000, 5.000000)" sketch:type="MSLayerGroup">
		<path id="Fill-1" sketch:type="MSShapeGroup" fill="#81C6C2" d="M80.4,92.6l13.5-27.7c0,0-8.4,7.1-23.9,7.1S46.5,57.7,30.8,57.7
			S7.7,64.8,7.7,64.8L18,88l32.8,14"/>
		<path id="Fill-2" sketch:type="MSShapeGroup" fill="#81C6C2" d="M63.8,74l-3.2-15.7l17.2-2.9L81,71.1L63.8,74"/>
		<path id="Fill-3" sketch:type="MSShapeGroup" fill="#81C6C2" d="M58.6,62.3l22.7-3.9l-14.2-12L58.6,62.3"/>
		<path id="Fill-4" sketch:type="MSShapeGroup" fill="#81C6C2" d="M32.6,22.4l15,4L35.8,63.8l-15-4L32.6,22.4"/>
		<g id="Oval-3" sketch:type="MSShapeGroup">
			<path fill="#81C6C2" d="M51,10c22.6,0,41,18.4,41,41S73.6,92,51,92S10,73.6,10,51S28.4,10,51,10 M51,0C22.8,0,0,22.8,0,51
				c0,28.2,22.8,51,51,51c28.2,0,51-22.8,51-51C102,22.8,79.2,0,51,0L51,0z"/>
		</g>
		<g id="vert-graph-100" transform="translate(114.000000, 0.000000)" sketch:type="MSShapeGroup">
			<g id="Rectangle-37">
				<path fill="#81C6C2" d="M16,5c1.7,0,3,1.3,3,3v86c0,1.7-1.3,3-3,3H8c-1.7,0-3-1.3-3-3V8c0-1.7,1.3-3,3-3H16 M16,0H8
					C3.6,0,0,3.6,0,8v86c0,4.4,3.6,8,8,8h8c4.4,0,8-3.6,8-8V8C24,3.6,20.4,0,16,0L16,0z"/>
			</g>
			<path id="Rectangle-36" fill="#FF9933" d="M12,7L12,7c2.8,0,5,3.6,5,8v72c0,4.4-2.2,8-5,8l0,0c-2.8,0-5-3.6-5-8V15
				C7,10.6,9.2,7,12,7z"/>
		</g>
	</g>
</g>
</svg>
