<?xml version="1.0" encoding="UTF-8" standalone="no"?>
<svg width="43px" height="51px" viewBox="0 0 43 51" version="1.1" xmlns="http://www.w3.org/2000/svg" xmlns:xlink="http://www.w3.org/1999/xlink" xmlns:sketch="http://www.bohemiancoding.com/sketch/ns">
    <!-- Generator: Sketch 3.2.2 (9983) - http://www.bohemiancoding.com/sketch -->
    <title>Can Icon</title>
    <desc>Created with Sketch.</desc>
    <defs></defs>
    <g id="Page-1" stroke="none" stroke-width="1" fill="none" fill-rule="evenodd" sketch:type="MSPage">
        <g id="noun_49681-cans-copy" sketch:type="MSLayerGroup" fill="#81C6C2">
            <path d="M30.234375,3.62368421 C29.7640625,3.15394737 26.6734375,2.34868421 21.5,2.34868421 C16.3265625,2.34868421 13.2359375,3.15394737 12.765625,3.62368421 C13.2359375,4.09342105 16.3265625,4.89868421 21.5,4.89868421 C26.6734375,4.89868421 29.7640625,4.09342105 30.234375,3.62368421 L30.234375,3.62368421 Z M42.4625,24.9631579 C41.521875,23.0842105 35.4078125,22.6144737 32.0484375,22.6144737 L32.0484375,2.95263158 L31.9140625,2.55 C30.9734375,0.671052632 24.859375,0.134210526 21.5,0.134210526 C18.140625,0.134210526 12.0265625,0.671052632 11.0859375,2.55 L10.9515625,2.95263158 L10.9515625,22.6144737 C7.5921875,22.6144737 1.478125,23.1513158 0.5375,24.9631579 L0.403125,25.3657895 L0.403125,46.4368421 C0.403125,48.9197368 4.9046875,50.7986842 10.9515625,50.7986842 C16.9984375,50.7986842 21.5,48.9868421 21.5,46.5039474 C21.5,48.9868421 26.0015625,50.8657895 32.0484375,50.8657895 C38.0953125,50.8657895 42.596875,48.9868421 42.596875,46.5039474 L42.596875,25.3657895 L42.4625,24.9631579 L42.4625,24.9631579 Z M21.5,1.40921053 C22.5078125,1.40921053 31.2421875,1.47631579 31.2421875,3.62368421 C31.2421875,5.77105263 22.5078125,5.83815789 21.5,5.83815789 C20.4921875,5.83815789 11.7578125,5.77105263 11.7578125,3.62368421 C11.7578125,1.47631579 20.4921875,1.40921053 21.5,1.40921053 L21.5,1.40921053 Z M1.209375,26.1039474 C1.209375,23.9565789 9.94375,23.8894737 10.9515625,23.8894737 L10.9515625,23.8894737 L10.9515625,24.0907895 C10.9515625,24.3592105 11.01875,24.6276316 11.0859375,24.8960526 L10.9515625,24.8960526 C5.778125,24.8960526 2.6875,25.7013158 2.2171875,26.1710526 C2.6875,26.6407895 5.778125,27.4460526 10.9515625,27.4460526 C12.1609375,27.4460526 13.2359375,27.3789474 14.1765625,27.3118421 C14.915625,27.5802632 15.721875,27.8486842 16.6625,28.05 C14.24375,28.3855263 11.4890625,28.3855263 10.9515625,28.3855263 C9.94375,28.3184211 1.209375,28.2513158 1.209375,26.1039474 L1.209375,26.1039474 Z M20.021875,46.3026316 C20.021875,47.8460526 16.3265625,49.5236842 10.9515625,49.5236842 C5.64375,49.5236842 1.88125,47.8460526 1.88125,46.3026316 L1.88125,38.25 C2.821875,38.9210526 5.1734375,39.4578947 8.1296875,39.7263158 C8.196875,38.25 9.4734375,37.0421053 10.9515625,37.0421053 C12.4296875,37.0421053 13.70625,38.25 13.7734375,39.7263158 C16.7296875,39.525 19.0140625,38.9881579 20.021875,38.25 L20.021875,46.3026316 L20.021875,46.3026316 Z M21.5,27.0434211 L20.4921875,27.0434211 L20.4921875,27.0434211 C20.15625,27.0434211 19.8203125,26.9763158 19.484375,26.9763158 C18.6109375,26.9092105 17.8046875,26.775 16.9984375,26.6407895 L16.9984375,26.6407895 C16.7296875,26.5736842 16.4609375,26.5065789 16.259375,26.4394737 L16.259375,26.4394737 C15.990625,26.3723684 15.7890625,26.3052632 15.5875,26.2381579 L15.5875,26.2381579 C15.3859375,26.1710526 15.184375,26.1039474 14.9828125,26.0368421 L14.9828125,26.0368421 C14.78125,25.9697368 14.5796875,25.9026316 14.4453125,25.7684211 L14.4453125,25.7684211 C14.24375,25.7013158 14.109375,25.6342105 13.975,25.5 L13.975,25.5 C13.840625,25.4328947 13.70625,25.2986842 13.571875,25.2315789 L13.571875,25.2315789 C13.4375,25.1644737 13.303125,25.0302632 13.2359375,24.9631579 L13.2359375,24.9631579 C13.1015625,24.8960526 13.034375,24.7618421 12.9671875,24.6947368 C12.765625,24.4263158 12.63125,24.1578947 12.63125,23.9565789 L12.63125,15.9039474 C13.571875,16.575 15.85625,17.1118421 18.8125,17.3131579 C18.8796875,15.8368421 20.15625,14.6960526 21.634375,14.6960526 C23.1125,14.6960526 24.3890625,15.8368421 24.45625,17.3131579 C27.3453125,17.1118421 29.696875,16.575 30.6375,15.9039474 L30.6375,23.8894737 C30.6375,24.1578947 30.503125,24.4263158 30.3015625,24.6276316 L30.3015625,24.6276316 C30.234375,24.6947368 30.1671875,24.8289474 30.0328125,24.8960526 L30.0328125,24.8960526 C29.8984375,24.9631579 29.83125,25.0973684 29.696875,25.1644737 L29.696875,25.1644737 C29.5625,25.2315789 29.428125,25.3657895 29.29375,25.4328947 L29.29375,25.4328947 C29.159375,25.5 28.9578125,25.6342105 28.8234375,25.7013158 L28.8234375,25.7013158 C28.621875,25.7684211 28.4875,25.8355263 28.2859375,25.9697368 L28.2859375,25.9697368 C28.084375,26.0368421 27.8828125,26.1039474 27.68125,26.1710526 L27.68125,26.1710526 C27.4796875,26.2381579 27.2109375,26.3052632 27.009375,26.3723684 L27.009375,26.3723684 C26.740625,26.4394737 26.5390625,26.5065789 26.2703125,26.5736842 C25.53125,26.7078947 24.725,26.8421053 23.784375,26.9092105 C23.4484375,26.9092105 23.1125,26.9763158 22.7765625,26.9763158 L22.7765625,26.9763158 C22.171875,27.0434211 21.8359375,27.0434211 21.5,27.0434211 L21.5,27.0434211 Z M40.984375,46.3026316 C40.984375,47.7789474 37.2890625,49.4565789 32.0484375,49.4565789 C26.740625,49.4565789 23.1125,47.7789474 23.1125,46.3026316 L23.1125,38.3171053 C24.053125,38.9881579 26.3375,39.525 29.2265625,39.7263158 C29.29375,38.25 30.5703125,37.1092105 32.0484375,37.1092105 C33.5265625,37.1092105 34.7359375,38.25 34.8703125,39.7263158 C37.759375,39.525 40.1109375,38.9881579 40.984375,38.3171053 L40.984375,46.3026316 L40.984375,46.3026316 Z M32.0484375,28.3184211 C31.5109375,28.3184211 28.75625,28.3184211 26.3375,27.9828947 C27.278125,27.7815789 28.084375,27.5802632 28.8234375,27.2447368 C29.7640625,27.3118421 30.8390625,27.3789474 32.0484375,27.3789474 C37.221875,27.3789474 40.3125,26.5736842 40.7828125,26.1039474 C40.3125,25.6342105 37.221875,24.8289474 32.0484375,24.8289474 L31.9140625,24.8289474 C32.0484375,24.5605263 32.0484375,24.2921053 32.0484375,24.0236842 L32.0484375,23.8223684 C33.05625,23.8223684 41.790625,23.8894737 41.790625,26.0368421 C41.790625,28.2513158 33.05625,28.3184211 32.0484375,28.3184211 L32.0484375,28.3184211 Z" id="Shape" sketch:type="MSShapeGroup"></path>
        </g>
    </g>
</svg>