<?xml version="1.0" encoding="UTF-8" standalone="no"?>
<svg width="32px" height="32px" viewBox="0 0 32 32" version="1.1" xmlns="http://www.w3.org/2000/svg" xmlns:xlink="http://www.w3.org/1999/xlink" xmlns:sketch="http://www.bohemiancoding.com/sketch/ns">
    <!-- Generator: Sketch 3.2.2 (9983) - http://www.bohemiancoding.com/sketch -->
    <title>TwitterIcon</title>
    <desc>Created with Sketch.</desc>
    <defs></defs>
    <g id="Page-1" stroke="none" stroke-width="1" fill="none" fill-rule="evenodd" sketch:type="MSPage">
        <g id="Imported-Layers" sketch:type="MSLayerGroup" transform="translate(-48.000000, 0.000000)">
            <g id="Twitter" transform="translate(48.000000, 0.000000)" sketch:type="MSShapeGroup">
                <rect id="Rectangle-3" fill="#FF9933" x="0" y="0" width="32" height="32" rx="8"></rect>
                <path d="M22.32,13.115 C22.327,13.255 22.33,13.396 22.33,13.539 C22.33,17.877 19.028,22.879 12.99,22.879 C11.136,22.879 9.411,22.336 7.958,21.404 C8.216,21.434 8.477,21.449 8.741,21.449 C10.28,21.449 11.694,20.925 12.817,20.045 C11.382,20.018 10.169,19.069 9.752,17.765 C9.952,17.803 10.157,17.824 10.369,17.824 C10.669,17.824 10.959,17.784 11.233,17.709 C9.733,17.407 8.601,16.08 8.601,14.49 L8.601,14.449 C9.044,14.695 9.55,14.842 10.088,14.859 C9.207,14.271 8.628,13.265 8.628,12.127 C8.628,11.525 8.79,10.961 9.072,10.476 C10.69,12.463 13.11,13.769 15.838,13.906 C15.782,13.666 15.753,13.416 15.753,13.158 C15.753,11.345 17.223,9.877 19.036,9.877 C19.98,9.877 20.833,10.275 21.432,10.912 C22.179,10.765 22.882,10.492 23.517,10.116 C23.271,10.882 22.751,11.526 22.073,11.931 C22.737,11.853 23.37,11.676 23.958,11.416 C23.519,12.074 22.962,12.652 22.32,13.115" id="twitter" fill="#FFFFFF"></path>
            </g>
        </g>
    </g>
</svg>