<?xml version="1.0" encoding="UTF-8" standalone="no"?>
<svg width="32px" height="32px" viewBox="0 0 32 32" version="1.1" xmlns="http://www.w3.org/2000/svg" xmlns:xlink="http://www.w3.org/1999/xlink" xmlns:sketch="http://www.bohemiancoding.com/sketch/ns">
    <!-- Generator: Sketch 3.2.2 (9983) - http://www.bohemiancoding.com/sketch -->
    <title>EmailIcon</title>
    <desc>Created with Sketch.</desc>
    <defs></defs>
    <g id="Page-1" stroke="none" stroke-width="1" fill="none" fill-rule="evenodd" sketch:type="MSPage">
        <g id="Imported-Layers" sketch:type="MSLayerGroup">
            <g id="Email" sketch:type="MSShapeGroup">
                <rect id="Rectangle-3" fill="#FF9933" x="0" y="0" width="32" height="32" rx="8"></rect>
                <path d="M16,17.2191016 L8.8984375,10.0820312 L23.1015625,10.0820312 L16,17.2191016 L16,17.2191016 L16,17.2191016 L16,17.2191016 Z" id="Path" fill="#FFFFFF"></path>
                <path d="M8.8984375,12.4492188 L8.8984375,19.5507812 L12.4492188,16 L8.8984375,12.4492188 L8.8984375,12.4492188 L8.8984375,12.4492188 L8.8984375,12.4492188 Z" id="Path" fill="#FFFFFF"></path>
                <path d="M16,19.5507813 L13.6328125,17.1835938 L8.8984375,21.9179688 L23.1015625,21.9179688 L18.3671875,17.1835938 L16,19.5507813 L16,19.5507813 L16,19.5507813 L16,19.5507813 Z" id="Path" fill="#FFFFFF"></path>
                <path d="M19.5507812,16 L23.1015625,19.5507812 L23.1015625,12.4492188 L19.5507812,16 L19.5507812,16 Z" id="Path" fill="#FFFFFF"></path>
            </g>
        </g>
    </g>
</svg>