<?xml version="1.0" encoding="UTF-8" standalone="no"?>
<svg width="48px" height="51px" viewBox="0 0 48 51" version="1.1" xmlns="http://www.w3.org/2000/svg" xmlns:xlink="http://www.w3.org/1999/xlink" xmlns:sketch="http://www.bohemiancoding.com/sketch/ns">
    <!-- Generator: Sketch 3.2.2 (9983) - http://www.bohemiancoding.com/sketch -->
    <title>Calendar Icon</title>
    <desc>Created with Sketch.</desc>
    <defs></defs>
    <g id="Page-1" stroke="none" stroke-width="1" fill="none" fill-rule="evenodd" sketch:type="MSPage">
        <g id="noun_109955-calendar" sketch:type="MSLayerGroup" fill="#81C6C2">
            <g id="January" sketch:type="MSShapeGroup">
                <g id="16-02-2015---calendar">
                    <path d="M38.8860759,4.69736842 L43.1333521,4.69736842 C45.8211275,4.69736842 48,7.10542784 48,10.0654344 L48,45.6319341 C48,48.596635 45.8285761,51 43.1333521,51 L4.86664794,51 C2.17887251,51 0,48.5919406 0,45.6319341 L0,10.0654344 C0,7.10073342 2.17142388,4.69736842 4.86664794,4.69736842 L9.11392405,4.69736842 L9.11392405,7.38156539 C9.11392405,8.86161821 10.2020421,10.0657895 11.5443038,10.0657895 C12.8838342,10.0657895 13.9746835,8.86402138 13.9746835,7.38156539 L13.9746835,4.69736842 L34.0253165,4.69736842 L34.0253165,7.38156539 C34.0253165,8.86161821 35.1134345,10.0657895 36.4556962,10.0657895 C37.7952266,10.0657895 38.8860759,8.86402138 38.8860759,7.38156539 L38.8860759,4.69736842 L38.8860759,4.69736842 Z M2.43037975,17.5900944 L2.43037975,46.1599056 C2.43037975,47.3477739 3.52223714,48.3157895 4.86664794,48.3157895 L43.1333521,48.3157895 C44.483861,48.3157895 45.5696203,47.3527435 45.5696203,46.1599056 L45.5696203,17.5900944 L2.43037975,17.5900944 L2.43037975,17.5900944 Z M21.2658228,22.8140392 C21.2658228,22.0737815 21.8101414,21.4736842 22.4794279,21.4736842 L25.5205721,21.4736842 C26.1908277,21.4736842 26.7341772,22.0748519 26.7341772,22.8140392 L26.7341772,26.1728029 C26.7341772,26.9130606 26.1898586,27.5131579 25.5205721,27.5131579 L22.4794279,27.5131579 C21.8091723,27.5131579 21.2658228,26.9119902 21.2658228,26.1728029 L21.2658228,22.8140392 L21.2658228,22.8140392 Z M28.556962,22.8140392 C28.556962,22.0737815 29.1012807,21.4736842 29.7705671,21.4736842 L32.8117114,21.4736842 C33.481967,21.4736842 34.0253165,22.0748519 34.0253165,22.8140392 L34.0253165,26.1728029 C34.0253165,26.9130606 33.4809978,27.5131579 32.8117114,27.5131579 L29.7705671,27.5131579 C29.1003115,27.5131579 28.556962,26.9119902 28.556962,26.1728029 L28.556962,22.8140392 L28.556962,22.8140392 Z M35.8481013,22.8140392 C35.8481013,22.0737815 36.3924199,21.4736842 37.0617063,21.4736842 L40.1028506,21.4736842 C40.7731062,21.4736842 41.3164557,22.0748519 41.3164557,22.8140392 L41.3164557,26.1728029 C41.3164557,26.9130606 40.772137,27.5131579 40.1028506,27.5131579 L37.0617063,27.5131579 C36.3914508,27.5131579 35.8481013,26.9119902 35.8481013,26.1728029 L35.8481013,22.8140392 L35.8481013,22.8140392 Z M6.6835443,30.8666707 C6.6835443,30.1264131 7.22786297,29.5263158 7.89714939,29.5263158 L10.9382937,29.5263158 C11.6085492,29.5263158 12.1518987,30.1274835 12.1518987,30.8666707 L12.1518987,34.2254345 C12.1518987,34.9656921 11.6075801,35.5657895 10.9382937,35.5657895 L7.89714939,35.5657895 C7.22689379,35.5657895 6.6835443,34.9646217 6.6835443,34.2254345 L6.6835443,30.8666707 L6.6835443,30.8666707 Z M13.9746835,30.8666707 C13.9746835,30.1264131 14.5190022,29.5263158 15.1882886,29.5263158 L18.2294329,29.5263158 C18.8996885,29.5263158 19.443038,30.1274835 19.443038,30.8666707 L19.443038,34.2254345 C19.443038,34.9656921 18.8987193,35.5657895 18.2294329,35.5657895 L15.1882886,35.5657895 C14.518033,35.5657895 13.9746835,34.9646217 13.9746835,34.2254345 L13.9746835,30.8666707 L13.9746835,30.8666707 Z M21.2658228,30.8666707 C21.2658228,30.1264131 21.8101414,29.5263158 22.4794279,29.5263158 L25.5205721,29.5263158 C26.1908277,29.5263158 26.7341772,30.1274835 26.7341772,30.8666707 L26.7341772,34.2254345 C26.7341772,34.9656921 26.1898586,35.5657895 25.5205721,35.5657895 L22.4794279,35.5657895 C21.8091723,35.5657895 21.2658228,34.9646217 21.2658228,34.2254345 L21.2658228,30.8666707 L21.2658228,30.8666707 Z M28.556962,30.8666707 C28.556962,30.1264131 29.1012807,29.5263158 29.7705671,29.5263158 L32.8117114,29.5263158 C33.481967,29.5263158 34.0253165,30.1274835 34.0253165,30.8666707 L34.0253165,34.2254345 C34.0253165,34.9656921 33.4809978,35.5657895 32.8117114,35.5657895 L29.7705671,35.5657895 C29.1003115,35.5657895 28.556962,34.9646217 28.556962,34.2254345 L28.556962,30.8666707 L28.556962,30.8666707 Z M35.8481013,30.8666707 C35.8481013,30.1264131 36.3924199,29.5263158 37.0617063,29.5263158 L40.1028506,29.5263158 C40.7731062,29.5263158 41.3164557,30.1274835 41.3164557,30.8666707 L41.3164557,34.2254345 C41.3164557,34.9656921 40.772137,35.5657895 40.1028506,35.5657895 L37.0617063,35.5657895 C36.3914508,35.5657895 35.8481013,34.9646217 35.8481013,34.2254345 L35.8481013,30.8666707 L35.8481013,30.8666707 Z M6.6835443,38.9193023 C6.6835443,38.1790447 7.22786297,37.5789474 7.89714939,37.5789474 L10.9382937,37.5789474 C11.6085492,37.5789474 12.1518987,38.1801151 12.1518987,38.9193023 L12.1518987,42.2780661 C12.1518987,43.0183237 11.6075801,43.6184211 10.9382937,43.6184211 L7.89714939,43.6184211 C7.22689379,43.6184211 6.6835443,43.0172533 6.6835443,42.2780661 L6.6835443,38.9193023 L6.6835443,38.9193023 Z M13.9746835,38.9193023 C13.9746835,38.1790447 14.5190022,37.5789474 15.1882886,37.5789474 L18.2294329,37.5789474 C18.8996885,37.5789474 19.443038,38.1801151 19.443038,38.9193023 L19.443038,42.2780661 C19.443038,43.0183237 18.8987193,43.6184211 18.2294329,43.6184211 L15.1882886,43.6184211 C14.518033,43.6184211 13.9746835,43.0172533 13.9746835,42.2780661 L13.9746835,38.9193023 L13.9746835,38.9193023 Z M21.2658228,38.9193023 C21.2658228,38.1790447 21.8101414,37.5789474 22.4794279,37.5789474 L25.5205721,37.5789474 C26.1908277,37.5789474 26.7341772,38.1801151 26.7341772,38.9193023 L26.7341772,42.2780661 C26.7341772,43.0183237 26.1898586,43.6184211 25.5205721,43.6184211 L22.4794279,43.6184211 C21.8091723,43.6184211 21.2658228,43.0172533 21.2658228,42.2780661 L21.2658228,38.9193023 L21.2658228,38.9193023 Z M28.556962,38.9193023 C28.556962,38.1790447 29.1012807,37.5789474 29.7705671,37.5789474 L32.8117114,37.5789474 C33.481967,37.5789474 34.0253165,38.1801151 34.0253165,38.9193023 L34.0253165,42.2780661 C34.0253165,43.0183237 33.4809978,43.6184211 32.8117114,43.6184211 L29.7705671,43.6184211 C29.1003115,43.6184211 28.556962,43.0172533 28.556962,42.2780661 L28.556962,38.9193023 L28.556962,38.9193023 Z M34.6329114,2.01540673 C34.6329114,0.902328371 35.4510484,0 36.4556962,0 C37.4623924,0 38.278481,0.900806893 38.278481,2.01540673 L38.278481,7.37933012 C38.278481,8.49240847 37.460344,9.39473684 36.4556962,9.39473684 C35.449,9.39473684 34.6329114,8.49392995 34.6329114,7.37933012 L34.6329114,2.01540673 L34.6329114,2.01540673 Z M9.72151899,2.01540673 C9.72151899,0.902328371 10.539656,0 11.5443038,0 C12.551,0 13.3670886,0.900806893 13.3670886,2.01540673 L13.3670886,7.37933012 C13.3670886,8.49240847 12.5489516,9.39473684 11.5443038,9.39473684 C10.5376076,9.39473684 9.72151899,8.49392995 9.72151899,7.37933012 L9.72151899,2.01540673 L9.72151899,2.01540673 Z" id="calendar"></path>
                </g>
            </g>
        </g>
    </g>
</svg>