<?xml version="1.0" encoding="utf-8"?>
<!-- Generator: Adobe Illustrator 18.0.0, SVG Export Plug-In . SVG Version: 6.00 Build 0)  -->
<!DOCTYPE svg PUBLIC "-//W3C//DTD SVG 1.1//EN" "http://www.w3.org/Graphics/SVG/1.1/DTD/svg11.dtd">
<svg version="1.1" id="Layer_1" xmlns:sketch="http://www.bohemiancoding.com/sketch/ns"
	 xmlns="http://www.w3.org/2000/svg" xmlns:xlink="http://www.w3.org/1999/xlink" x="0px" y="0px" viewBox="0 0 146 112"
	 enable-background="new 0 0 146 112" xml:space="preserve">
<title>icon-shaking-4-6</title>
<desc>Created with Sketch.</desc>
<g id="Page-1" sketch:type="MSPage">
	<g id="Intensity-4" transform="translate(5.000000, 5.000000)" sketch:type="MSLayerGroup">
		<path id="Shape" sketch:type="MSShapeGroup" fill="#81C6C2" d="M77.4,51.7c-1.2,0-2.3,0.7-2.8,1.7L70,62l-5.7-16.6
			c-0.4-1.3-1.6-2.1-2.9-2.2c-1.4,0-2.5,0.7-3.1,1.9l-3.9,9.2l-6.1-36.7c-0.3-1.5-1.7-2.7-3.2-2.6c-1.6,0-2.9,1.1-3.1,2.6l-5.4,42.5
			l-4.4-22.8c-0.3-1.4-1.4-2.4-2.7-2.6c-1.3-0.2-2.7,0.5-3.3,1.8l-7.2,14.9H8v6.4h13.1c1.2,0,2.3-0.7,2.9-1.8l3.9-8l6.2,32.4
			c0.3,1.5,1.6,2.6,3.1,2.6h0.1c1.6,0,2.9-1.2,3.1-2.8l5.3-41.8l4.5,27.5c0.3,1.4,1.4,2.4,2.8,2.6c1.4,0.1,2.7-0.6,3.3-1.9L61,55.5
			l5.3,15.6c0.4,1.2,1.5,2,2.8,2.1c1.3,0.1,2.5-0.6,3.1-1.7l7.1-13.5H93v-6.4H77.4L77.4,51.7z"/>
		<g id="Oval-3" sketch:type="MSShapeGroup">
			<path fill="#81C6C2" d="M51,10c22.6,0,41,18.4,41,41S73.6,92,51,92S10,73.6,10,51S28.4,10,51,10 M51,0C22.8,0,0,22.8,0,51
				c0,28.2,22.8,51,51,51c28.2,0,51-22.8,51-51C102,22.8,79.2,0,51,0L51,0z"/>
		</g>
		<g id="vert-graph-66.6" transform="translate(114.000000, 0.000000)" sketch:type="MSShapeGroup">
			<g id="Rectangle-37">
				<path fill="#81C6C2" d="M16,5c1.7,0,3,1.3,3,3v86c0,1.7-1.3,3-3,3H8c-1.7,0-3-1.3-3-3V8c0-1.7,1.3-3,3-3H16 M16,0H8
					C3.6,0,0,3.6,0,8v86c0,4.4,3.6,8,8,8h8c4.4,0,8-3.6,8-8V8C24,3.6,20.4,0,16,0L16,0z"/>
			</g>
			<path id="Rectangle-36" fill="#FF9933" d="M12,36L12,36c2.8,0,5,3.6,5,8v42.6c0,4.4-2.2,8-5,8l0,0c-2.8,0-5-3.6-5-8V44
				C7,39.6,9.2,36,12,36z"/>
		</g>
	</g>
</g>
</svg>
