<?xml version="1.0" encoding="utf-8"?>
<!-- Generator: Adobe Illustrator 18.0.0, SVG Export Plug-In . SVG Version: 6.00 Build 0)  -->
<!DOCTYPE svg PUBLIC "-//W3C//DTD SVG 1.1//EN" "http://www.w3.org/Graphics/SVG/1.1/DTD/svg11.dtd">
<svg version="1.1" id="Layer_1" xmlns:sketch="http://www.bohemiancoding.com/sketch/ns"
	 xmlns="http://www.w3.org/2000/svg" xmlns:xlink="http://www.w3.org/1999/xlink" x="0px" y="0px" viewBox="0 0 146 112"
	 enable-background="new 0 0 146 112" xml:space="preserve">
<title>icon-tsunami-1</title>
<desc>Created with Sketch.</desc>
<g id="Page-1" sketch:type="MSPage">
	<g id="Tsunami" transform="translate(5.000000, 5.000000)" sketch:type="MSLayerGroup">
		<path id="Shape" sketch:type="MSShapeGroup" fill="#81C6C2" d="M84.3,66.1c-0.8-2.7-1.7-5.8-2.1-7.1c0.9-0.2,6.3-1.6,6.3-1.6
			L69.1,50l-0.7,0.9L56.7,66.3c0,0,5.3-1.5,6.1-1.8c0.3,1,1,3.5,1.7,5.7l0.1,0.3c-0.5,0-1,0-1.5,0c-8.1-0.2-18.8-4.9-19.3-18.7
			c-0.2-5.9,4.7-21,21.1-16.8c0,0-10-11-19.4-10.9c-9.4,0.1-13.9,3.5-22.8,10.2C11.9,42.5,2.1,47,2,47.1l14.2,37.1l29.3,14l38.8-12
			L92,61.5C92,61.5,89.3,63.8,84.3,66.1z M81.1,67.5c-1.4,0.4-4.2,1.2-6.9,2c-2,0.4-4.2,0.8-6.6,0.9l-0.1-0.3
			c-0.9-3-2.8-9.3-2.8-9.3l0-0.2c0,0,4.6-6,5.3-7c1.2,0.4,4.7,1.8,8.3,3.2c0.1,0,0.1,0.2,0.1,0.2s2.3,7.8,3,10.2l0.1,0.3
			C81.4,67.4,81.2,67.4,81.1,67.5L81.1,67.5z"/>
		<g id="Oval-3" sketch:type="MSShapeGroup">
			<path fill="#81C6C2" d="M51,10c22.6,0,41,18.4,41,41S73.6,92,51,92S10,73.6,10,51S28.4,10,51,10 M51,0C22.8,0,0,22.8,0,51
				c0,28.2,22.8,51,51,51c28.2,0,51-22.8,51-51C102,22.8,79.2,0,51,0L51,0z"/>
		</g>
		<g id="Rectangle-34" sketch:type="MSShapeGroup">
			<path fill="#81C6C2" d="M130,5c1.7,0,3,1.3,3,3v86c0,1.7-1.3,3-3,3h-8c-1.7,0-3-1.3-3-3V8c0-1.7,1.3-3,3-3H130 M130,0h-8
				c-4.4,0-8,3.6-8,8v86c0,4.4,3.6,8,8,8h8c4.4,0,8-3.6,8-8V8C138,3.6,134.4,0,130,0L130,0z"/>
		</g>
		<path id="Rectangle-35" sketch:type="MSShapeGroup" fill="#FF9933" d="M126,7L126,7c2.8,0,5,3.6,5,8v72c0,4.4-2.2,8-5,8l0,0
			c-2.8,0-5-3.6-5-8V15C121,10.6,123.2,7,126,7z"/>
	</g>
</g>
</svg>
